<?xml version="1.0" encoding="UTF-8"?>
<svg width="256" height="256" viewBox="0 0 256 256" xmlns="http://www.w3.org/2000/svg">
  <!-- Background -->
  <rect width="256" height="256" rx="32" ry="32" fill="#2c3e50"/>
  
  <!-- Main image frame -->
  <rect x="32" y="48" width="192" height="128" rx="8" ry="8" fill="#ecf0f1" stroke="#34495e" stroke-width="4"/>
  
  <!-- Image content (mountain landscape) -->
  <polygon points="32,176 80,120 128,140 176,100 224,176" fill="#3498db"/>
  <polygon points="32,176 80,140 128,160 176,120 224,176" fill="#2980b9"/>
  
  <!-- Sun -->
  <circle cx="180" cy="80" r="16" fill="#f39c12"/>
  
  <!-- Crop overlay lines -->
  <line x1="32" y1="96" x2="224" y2="96" stroke="#e74c3c" stroke-width="2" stroke-dasharray="4,4" opacity="0.8"/>
  <line x1="32" y1="128" x2="224" y2="128" stroke="#e74c3c" stroke-width="2" stroke-dasharray="4,4" opacity="0.8"/>
  <line x1="96" y1="48" x2="96" y2="176" stroke="#e74c3c" stroke-width="2" stroke-dasharray="4,4" opacity="0.8"/>
  <line x1="160" y1="48" x2="160" y2="176" stroke="#e74c3c" stroke-width="2" stroke-dasharray="4,4" opacity="0.8"/>
  
  <!-- Tools/controls at bottom -->
  <rect x="48" y="192" width="160" height="32" rx="16" ry="16" fill="#34495e"/>
  
  <!-- Resolution indicator -->
  <text x="128" y="212" text-anchor="middle" fill="#ecf0f1" font-family="Arial, sans-serif" font-size="14" font-weight="bold">1920×1080</text>
  
  <!-- Corner resize handles -->
  <rect x="28" y="44" width="8" height="8" fill="#e74c3c"/>
  <rect x="220" y="44" width="8" height="8" fill="#e74c3c"/>
  <rect x="28" y="172" width="8" height="8" fill="#e74c3c"/>
  <rect x="220" y="172" width="8" height="8" fill="#e74c3c"/>
</svg>
